<?xml version="1.0" encoding="UTF-8"?>
<svg xmlns="http://www.w3.org/2000/svg" version="1.1" viewBox="0 0 2500 2500">
  <defs>
    <style>
      .cls-1, .cls-2, .cls-3, .cls-4, .cls-5, .cls-6, .cls-7, .cls-8 {
        stroke-width: 0px;
      }

      .cls-1, .cls-4 {
        fill: #ffb600;
      }

      .cls-2, .cls-3, .cls-7 {
        fill: #ffc50d;
      }

      .cls-2, .cls-4, .cls-5 {
        fill-rule: evenodd;
      }

      .cls-3, .cls-6, .cls-9 {
        display: none;
      }

      .cls-5, .cls-6, .cls-8 {
        fill: #e0b100;
      }
    </style>
  </defs>
  <g id="Layer_1" data-name="Layer 1" class="cls-9">
    <rect class="cls-6" x="-171.1" y="323" width="474.3" height="126.4"/>
    <rect class="cls-3" x="-359.7" y="500.9" width="662.9" height="137.1"/>
    <g>
      <g>
        <path class="cls-1" d="M536.7,1792.8v-136h47.4c24.2,0,42.3,5.5,54.3,16.6,12.1,11,18.1,27.6,18.1,49.8s-6.6,38.1-19.8,50.7-30.8,19-52.7,19h-47.3ZM566.3,1680.9v87.7h15.5c13.6,0,24.2-4,32-12.1s11.6-19.1,11.6-33.2-3.8-23.7-11.4-31.2c-7.6-7.5-18.3-11.3-32.2-11.3h-15.5Z"/>
        <path class="cls-1" d="M734.4,1679.9c-5.1,0-9.2-1.5-12.4-4.6-3.2-3.1-4.8-6.9-4.8-11.4s1.6-8.6,4.8-11.6,7.3-4.5,12.4-4.5,9.2,1.5,12.4,4.5c3.2,3,4.8,6.8,4.8,11.6s-1.6,8.5-4.8,11.5c-3.2,3-7.3,4.5-12.4,4.5ZM748.6,1792.8h-28.9v-99.5h28.9v99.5Z"/>
        <path class="cls-1" d="M915,1780.9c0,16.6-5.1,30.4-15.3,41.2s-25,16.3-44.5,16.3-13.9-.7-20.1-2c-6.2-1.4-12.3-3.5-18.5-6.3l8.7-19.7c5.1,2.3,9.9,3.9,14.6,5,4.7,1,10,1.6,15.8,1.6,9.7,0,17.2-2.9,22.4-8.6,5.2-5.7,7.8-13.3,7.8-22.8v-7.3h-.4c-3.5,5.7-7.9,10-13.1,12.8-5.3,2.8-11.3,4.3-18.2,4.3-12.7,0-22.8-4.5-30.3-13.5-7.5-9-11.2-20.9-11.2-35.8s4.2-30.2,12.5-40.2c8.3-10,19.2-14.9,32.8-14.9s11.5,1.2,16.1,3.6,8.4,6,11.4,10.8h.4v-11.8h29v87.6h0ZM886.4,1745.3v-8.7c0-6.5-2-12-5.9-16.6-3.9-4.6-9-6.9-15.2-6.9s-12.8,2.7-16.8,8.3c-4.1,5.5-6.1,13.3-6.1,23.3s1.9,15.5,5.8,20.5,9.2,7.5,15.9,7.5,12.1-2.5,16.2-7.6c4.1-5.1,6.1-11.7,6.1-19.9Z"/>
        <path class="cls-1" d="M998.3,1679.9c-5.1,0-9.2-1.5-12.4-4.6-3.2-3.1-4.8-6.9-4.8-11.4s1.6-8.6,4.8-11.6c3.2-3,7.3-4.5,12.4-4.5s9.2,1.5,12.4,4.5,4.8,6.8,4.8,11.6-1.6,8.5-4.8,11.5c-3.2,3-7.3,4.5-12.4,4.5ZM1012.5,1792.8h-28.9v-99.5h28.9v99.5Z"/>
        <path class="cls-1" d="M1143.4,1791.1c-3,1.3-6.4,2.3-10.1,3-3.7.7-7.5,1-11.3,1-10.6,0-18.6-2.6-24-7.8-5.4-5.2-8.1-12.9-8.1-23.1v-49.5h-16.2v-21.4h16.2v-22.4l28.9-8.3v30.7h22.7v21.4h-22.7v47.5c0,4,.8,7,2.4,8.8,1.6,1.8,4,2.7,7.3,2.7s3.3-.2,4.8-.6c1.5-.4,3-1,4.4-1.7l5.8,19.6Z"/>
        <path class="cls-1" d="M1283.5,1792.8h-27.6v-14.4h-.4c-3.3,5.6-7.4,9.8-12.4,12.6s-10.7,4.3-17,4.3-16.3-2.6-22.4-8c-6.1-5.3-9.1-12.7-9.1-22s3-16.8,9.1-22.6c6-5.7,15.4-9.5,28.1-11.2l24.4-3.3v-1.9c0-5.1-1.6-9-4.7-11.6-3.2-2.6-7.5-3.9-13.1-3.9s-8.7.7-13.7,2.1c-4.9,1.4-9.9,3.7-14.9,6.8l-10.2-17.2c6.5-4,13.1-6.9,19.8-8.9,6.7-1.9,13.9-2.9,21.7-2.9,14.4,0,25.1,3.5,32.1,10.4,7,7,10.4,17.4,10.4,31.4v60.1h0ZM1256.2,1752.3v-7l-18.9,2.5c-5.3.7-9.3,2.2-11.9,4.6s-3.9,5.6-3.9,9.5,1.3,6.7,3.8,9c2.5,2.3,5.9,3.5,10.2,3.5s11-2.1,14.8-6.2c3.8-4.2,5.7-9.5,5.7-15.9Z"/>
        <path class="cls-1" d="M1350.7,1792.8v-143.8h29v143.8h-29Z"/>
        <path class="cls-1" d="M1535.5,1783.6l12.2-23.1c6.8,4.1,12.8,6.9,17.9,8.4,5.1,1.5,10.5,2.2,16.1,2.2s12.7-1.4,16.4-4.3c3.6-2.9,5.5-6.9,5.5-12s-1.5-8.4-4.4-11c-2.9-2.6-8.2-4.8-15.8-6.7-15.1-3.5-26-8.5-32.8-14.8-6.8-6.4-10.2-15.2-10.2-26.5s4.4-21.2,13.2-29.2c8.8-8,21.2-12,37.1-12s13.2.8,19.6,2.3c6.4,1.5,12.6,3.8,18.4,6.7l-11.3,23.3c-5.2-2.9-10.1-5-14.8-6.3-4.6-1.3-9-1.9-13-1.9-6.3,0-11.1,1.3-14.7,3.7-3.5,2.5-5.3,6.1-5.3,10.8s1.6,7.5,4.8,9.8c3.2,2.3,8.9,4.4,17.2,6.5,14.6,3.4,25.2,8.4,31.7,15,6.5,6.6,9.8,15.9,9.8,27.8s-4.5,23.1-13.5,31.1c-9,7.9-22,11.9-39,11.9s-15.5-1-23.6-3c-8-2-15.3-4.9-21.6-8.5Z"/>
        <path class="cls-1" d="M1793,1792.8h-35.1l-33.2-49.2h-.4v49.2h-29v-143.8h29v90.2h.4l31-45.9h34.6l-36.8,46.9,39.4,52.6Z"/>
        <path class="cls-1" d="M1862.5,1679.9c-5.1,0-9.2-1.5-12.4-4.6-3.2-3.1-4.8-6.9-4.8-11.4s1.6-8.6,4.8-11.6,7.3-4.5,12.4-4.5,9.2,1.5,12.4,4.5c3.2,3,4.8,6.8,4.8,11.6s-1.6,8.5-4.8,11.5c-3.2,3-7.3,4.5-12.4,4.5ZM1876.7,1792.8h-28.9v-99.5h28.9v99.5Z"/>
        <path class="cls-1" d="M2035.2,1751.1h-65.5c.5,7.7,3,13.4,7.5,17.2,4.5,3.8,10.7,5.7,18.6,5.7s6.9-.8,11.9-2.5c5-1.7,9.9-4.3,14.8-7.9l12.6,16.9c-6.8,5.1-13.7,8.8-20.7,11.1-7,2.4-14.8,3.6-23.2,3.6-15.9,0-28.2-4.5-37-13.4-8.8-8.9-13.2-21.4-13.2-37.4s4.6-28.9,14-38.8c9.3-9.9,21.1-14.9,35.3-14.9s24.7,4.2,32.9,12.5c8.1,8.3,12.2,20.4,12.2,36v11.8h0ZM2008.3,1732.9c0-7.8-1.6-13.5-4.7-17-3.1-3.5-7.7-5.3-13.7-5.3s-9.8,2-13.5,6c-3.8,4-6.1,9.4-6.9,16.3h38.7Z"/>
        <path class="cls-1" d="M2087.1,1784.4l12-19.4c3.4,2.6,7.4,4.8,11.9,6.6,4.5,1.8,9.6,2.7,15.2,2.7s7.7-.8,10.4-2.3c2.7-1.5,4-3.9,4-7.1s-1-4.5-3.1-6c-2.1-1.5-5.9-2.9-11.6-4.1-12.3-2.6-21.2-6.4-26.6-11.1-5.4-4.8-8.1-11.4-8.1-20s4-18,11.9-23.9c7.9-5.9,17.7-8.9,29.3-8.9s11.6.8,16.9,2.3c5.3,1.6,10.4,3.8,15,6.9l-10.9,18.8c-4-2.5-7.8-4.4-11.3-5.6-3.5-1.2-7.1-1.7-10.9-1.7s-7.8.8-10.3,2.5c-2.6,1.7-3.9,3.8-3.9,6.4s1.2,4.9,3.5,6.3c2.4,1.4,6.9,2.7,13.6,4.1,11.4,2.4,19.7,6.1,24.7,10.9,5,4.9,7.5,11.6,7.5,20.1s-3.8,18.1-11.4,24.2c-7.6,6.1-17.6,9.2-30.1,9.2s-13.4-.9-19.6-2.6c-6.2-1.8-12.3-4.5-18.4-8.1Z"/>
      </g>
      <g>
        <path class="cls-4" d="M184,818.7l38.9,8.9,41.7-29.5-8.6-2.4c-4.9-1.2-7.8-6.3-6.5-11.2h0c1.3-4.9,6.4-7.8,11.3-6.5l23.2,6.3,31.4-22.3-9.1-2.4c-4.8-1.3-7.8-6.4-6.5-11.2h0c1.3-4.9,6.4-7.9,11.3-6.5l23.8,6.4,36.8-26.2s7.7-8,33.2,4.5l-90.9,107,95.4,50.9,58.4-41.6s3.8-4,14.1-.9l-40.8,68.8,4.1-6.9c28.7,7,60.8,16.6,94.7,29.5,60.6,23.1,126.9,57.1,189.6,107.2,92,73.3,176.3,181,223.6,339.3,15,50.2,26.3,105.4,32.9,166.3-36.1,7.4-75.3,11.9-117.5,13.5-12.2.5-24.6.7-37.3.7h-291.3v-549.2c76,46.8,140.3,108.5,189.6,186.7v194.7h119.8c-18.1-77.7-53-172-119.8-259.8-46.2-60.7-107.8-118.2-189.6-165-30.1-17.2-62.9-32.9-98.7-46.7l.9,69.5c-10.5-2.4-11.8-7.9-11.8-7.9l-29.8-65.3-108-3.5,25.1,138.1c-28.3-2.1-30.9-12.7-30.9-12.7l-18.8-41.1-23.8-6.3c-4.8-1.3-7.9-6.4-6.5-11.3h0c1.3-4.8,6.3-7.7,11.2-6.4l9.1,2.4-16-34.9-23.3-6.2c-4.9-1.3-7.8-6.4-6.5-11.3h0c1.3-4.9,6.4-7.8,11.3-6.5l8.5,2.3-21.3-46.4-38.1-11.8c-66.1-20.4-55.8-58.8,11.6-43.3h0Z"/>
        <path class="cls-4" d="M1008.7,1367.5c16.4,54.5,27.7,111.4,34.4,170.1,69.3-19,125.9-49.9,169.7-92.6,79-77,118.5-181.5,118.5-313.6s-40.5-235.2-121.6-309.4c-81-74.2-197.3-111.2-348.9-111.2h-300.3v183.4c47.1,17.3,91.6,38,128.8,59.8,21.4,12.5,41.6,25.8,60.8,39.8v-117.7h105.8c96.4,0,168,22.5,214.5,67.5,46.6,45,69.9,109.2,69.9,192.7s-23.3,147.1-69.9,190.8c-17.7,16.6-38.3,30.1-61.8,40.4h0Z"/>
      </g>
      <path class="cls-1" d="M1606.5,1311c20.5,83,85.5,119.3,189.8,119.3s148.5-37.6,148.5-98.1-43.5-96.4-197.6-129.3c-245.3-52.8-305.9-134.5-305.9-246.1s117.5-241.8,330.9-241.8,334.6,117.9,347.5,238.7h-196.3c-9.4-50.8-40.1-106.1-156.3-106.1s-126.8,29.9-126.8,88.6,38.3,80.7,183.9,111.7c262.1,56.6,319.6,146,319.6,262.4s-124.5,254.3-362.8,254.3-349.3-103.2-370.8-253.8h196.4Z"/>
    </g>
  </g>
  <g id="Layer_2" data-name="Layer 2">
    <path class="cls-7" d="M512.1,2315.3v-156.4h54.5c27.8,0,48.6,6.3,62.5,19,13.9,12.7,20.8,31.7,20.8,57.2s-7.6,43.8-22.8,58.3c-15.2,14.5-35.4,21.8-60.6,21.8h-54.4ZM546.2,2186.7v100.9h17.8c15.6,0,27.9-4.6,36.7-13.9,8.9-9.3,13.3-22,13.3-38.1s-4.4-27.2-13.1-35.9c-8.7-8.7-21-13-37-13h-17.8Z"/>
    <path class="cls-7" d="M666.4,2304.6l14.1-26.6c7.8,4.7,14.7,7.9,20.6,9.7,5.9,1.7,12.1,2.6,18.5,2.6s14.6-1.7,18.8-5c4.2-3.3,6.3-7.9,6.3-13.8s-1.7-9.7-5-12.7c-3.3-3-9.4-5.6-18.2-7.7-17.3-4.1-29.9-9.8-37.7-17.1-7.8-7.3-11.8-17.5-11.8-30.5s5.1-24.3,15.2-33.5c10.2-9.2,24.4-13.8,42.7-13.8s15.1.9,22.5,2.6,14.5,4.3,21.2,7.7l-13,26.8c-6-3.3-11.6-5.8-17-7.3-5.3-1.5-10.3-2.2-15-2.2-7.2,0-12.8,1.4-16.9,4.3-4,2.9-6.1,7-6.1,12.4s1.8,8.6,5.5,11.2c3.7,2.6,10.3,5.1,19.8,7.4,16.8,3.9,28.9,9.7,36.4,17.3,7.5,7.6,11.2,18.3,11.2,32s-5.2,26.6-15.5,35.7c-10.3,9.1-25.3,13.7-44.8,13.7s-17.8-1.2-27.1-3.5c-9.2-2.3-17.6-5.6-24.9-9.8Z"/>
    <g>
      <path class="cls-7" d="M512.1,1962.5v-156.4h54.5c27.8,0,48.6,6.3,62.5,19,13.9,12.7,20.8,31.7,20.8,57.2s-7.6,43.8-22.8,58.3c-15.2,14.5-35.4,21.8-60.6,21.8h-54.4ZM546.2,1833.9v100.9h17.8c15.6,0,27.9-4.6,36.7-13.9,8.9-9.3,13.3-22,13.3-38.1s-4.4-27.2-13.1-35.9c-8.7-8.7-21-13-37-13h-17.8Z"/>
      <path class="cls-7" d="M739.4,1832.7c-5.8,0-10.6-1.8-14.2-5.3-3.7-3.5-5.5-7.9-5.5-13.1s1.8-9.9,5.5-13.3,8.4-5.1,14.2-5.1,10.6,1.7,14.2,5.1c3.7,3.4,5.5,7.8,5.5,13.3s-1.8,9.8-5.5,13.3c-3.7,3.5-8.4,5.2-14.2,5.2ZM755.8,1962.5h-33.3v-114.4h33.3v114.4Z"/>
      <path class="cls-7" d="M947,1948.8c0,19.1-5.9,34.9-17.6,47.4-11.7,12.5-28.8,18.7-51.1,18.7s-16-.8-23.1-2.3c-7.1-1.6-14.2-4-21.3-7.3l10-22.7c5.8,2.6,11.4,4.5,16.8,5.7,5.4,1.2,11.4,1.8,18.2,1.8,11.2,0,19.8-3.3,25.7-9.9,6-6.6,8.9-15.3,8.9-26.2v-8.4h-.4c-4,6.5-9,11.4-15.1,14.7-6.1,3.3-13,4.9-20.9,4.9-14.6,0-26.2-5.2-34.8-15.5-8.6-10.3-12.9-24.1-12.9-41.2s4.8-34.7,14.3-46.2c9.6-11.4,22.1-17.2,37.7-17.2s13.2,1.4,18.5,4.1,9.7,6.8,13.1,12.4h.4v-13.6h33.4v100.7h0ZM914.1,1908v-10c0-7.4-2.3-13.7-6.8-19-4.5-5.3-10.3-7.9-17.4-7.9s-14.7,3.2-19.4,9.5c-4.7,6.3-7,15.3-7,26.8s2.2,17.8,6.7,23.6c4.5,5.8,10.6,8.7,18.3,8.7s13.9-2.9,18.6-8.7c4.7-5.8,7-13.4,7-22.9Z"/>
      <path class="cls-7" d="M1042.8,1832.7c-5.8,0-10.6-1.8-14.2-5.3-3.7-3.5-5.5-7.9-5.5-13.1s1.8-9.9,5.5-13.3c3.7-3.4,8.4-5.1,14.2-5.1s10.6,1.7,14.2,5.1,5.5,7.8,5.5,13.3-1.8,9.8-5.5,13.3c-3.7,3.5-8.4,5.2-14.2,5.2ZM1059.1,1962.5h-33.3v-114.4h33.3v114.4Z"/>
      <path class="cls-7" d="M1209.6,1960.6c-3.5,1.5-7.4,2.7-11.6,3.4s-8.6,1.1-13,1.1c-12.2,0-21.4-3-27.6-8.9s-9.3-14.8-9.3-26.6v-56.9h-18.6v-24.6h18.6v-25.7l33.3-9.6v35.3h26.1v24.6h-26.1v54.6c0,4.7.9,8,2.7,10.2,1.8,2.1,4.6,3.2,8.4,3.2s3.8-.2,5.6-.7c1.8-.5,3.4-1.1,5-1.9l6.6,22.6Z"/>
      <path class="cls-7" d="M1370.7,1962.5h-31.7v-16.6h-.4c-3.8,6.4-8.5,11.2-14.3,14.5s-12.3,4.9-19.5,4.9-18.8-3-25.7-9.2-10.5-14.5-10.5-25.3,3.5-19.3,10.4-25.9c6.9-6.6,17.7-10.9,32.3-12.9l28-3.8v-2.2c0-5.9-1.8-10.3-5.4-13.3-3.6-3-8.7-4.5-15-4.5s-10,.8-15.7,2.5c-5.7,1.6-11.4,4.2-17.1,7.8l-11.8-19.7c7.5-4.6,15.1-8,22.7-10.2,7.7-2.2,16-3.3,24.9-3.3,16.6,0,28.9,4,36.9,12,8,8,12,20,12,36.1v69.1h0ZM1339.3,1915.9v-8.1l-21.7,2.8c-6.1.8-10.6,2.6-13.6,5.3s-4.5,6.4-4.5,11,1.5,7.7,4.4,10.4c2.9,2.7,6.8,4,11.8,4s12.7-2.4,17.1-7.1c4.4-4.8,6.6-10.9,6.6-18.3Z"/>
      <path class="cls-7" d="M1447.9,1962.5v-165.3h33.4v165.3h-33.4Z"/>
      <path class="cls-7" d="M1660.4,1951.9l14.1-26.6c7.8,4.7,14.7,7.9,20.6,9.7,5.9,1.7,12.1,2.6,18.5,2.6s14.6-1.7,18.8-5c4.2-3.3,6.3-7.9,6.3-13.8s-1.7-9.7-5-12.7c-3.3-3-9.4-5.6-18.2-7.7-17.3-4.1-29.9-9.8-37.7-17.1-7.8-7.3-11.8-17.5-11.8-30.5s5.1-24.3,15.2-33.5c10.2-9.2,24.4-13.8,42.7-13.8s15.1.9,22.5,2.6,14.5,4.3,21.2,7.7l-13,26.8c-6-3.3-11.6-5.8-17-7.3-5.3-1.5-10.3-2.2-15-2.2-7.2,0-12.8,1.4-16.9,4.3-4,2.9-6.1,7-6.1,12.4s1.8,8.6,5.5,11.2c3.7,2.6,10.3,5.1,19.8,7.4,16.8,3.9,28.9,9.7,36.4,17.3,7.5,7.6,11.2,18.3,11.2,32s-5.2,26.6-15.5,35.7c-10.3,9.1-25.3,13.7-44.8,13.7s-17.8-1.2-27.1-3.5c-9.2-2.3-17.6-5.6-24.9-9.8Z"/>
      <path class="cls-7" d="M1956.4,1962.5h-40.3l-38.2-56.6h-.4v56.6h-33.4v-165.3h33.4v103.7h.4l35.7-52.8h39.8l-42.3,53.9,45.3,60.5Z"/>
      <path class="cls-7" d="M2036.3,1832.7c-5.8,0-10.6-1.8-14.2-5.3-3.7-3.5-5.5-7.9-5.5-13.1s1.8-9.9,5.5-13.3,8.4-5.1,14.2-5.1,10.6,1.7,14.2,5.1c3.7,3.4,5.5,7.8,5.5,13.3s-1.8,9.8-5.5,13.3c-3.7,3.5-8.4,5.2-14.2,5.2ZM2052.6,1962.5h-33.3v-114.4h33.3v114.4Z"/>
      <path class="cls-7" d="M2234.9,1914.6h-75.4c.6,8.8,3.5,15.4,8.6,19.8,5.2,4.4,12.3,6.6,21.4,6.6s7.9-1,13.7-2.9c5.8-1.9,11.4-5,17-9.1l14.5,19.4c-7.8,5.8-15.7,10.1-23.8,12.8s-17,4.1-26.7,4.1c-18.3,0-32.4-5.1-42.5-15.4-10.1-10.2-15.2-24.6-15.2-43s5.3-33.2,16-44.6c10.7-11.4,24.2-17.1,40.6-17.1s28.4,4.8,37.8,14.4c9.3,9.6,14,23.4,14,41.4v13.5h0ZM2203.9,1893.7c0-9-1.8-15.5-5.4-19.6-3.6-4-8.8-6.1-15.7-6.1s-11.2,2.3-15.5,6.9c-4.3,4.6-7,10.9-7.9,18.7h44.5Z"/>
      <path class="cls-7" d="M2294.5,1952.9l13.8-22.3c3.9,3,8.5,5.5,13.7,7.6,5.2,2.1,11,3.1,17.5,3.1s8.8-.9,11.9-2.7c3.1-1.8,4.6-4.5,4.6-8.1s-1.2-5.2-3.6-6.9c-2.4-1.7-6.8-3.3-13.3-4.7-14.2-3-24.4-7.3-30.5-12.8-6.2-5.5-9.3-13.1-9.3-23s4.6-20.7,13.7-27.5c9.1-6.8,20.3-10.2,33.6-10.2s13.3.9,19.5,2.7c6.1,1.8,11.9,4.4,17.3,7.9l-12.5,21.6c-4.7-2.9-9-5-13-6.4-4-1.3-8.2-2-12.5-2s-8.9.9-11.9,2.8c-3,1.9-4.5,4.3-4.5,7.3s1.4,5.7,4.1,7.3c2.7,1.6,7.9,3.1,15.7,4.7,13.2,2.8,22.6,7,28.4,12.6,5.8,5.6,8.7,13.3,8.7,23.1s-4.4,20.8-13.1,27.9c-8.7,7-20.2,10.5-34.6,10.5s-15.4-1-22.6-3c-7.1-2-14.2-5.1-21.2-9.4Z"/>
      <g>
        <path class="cls-2" d="M112,816.3l44.7,10.2,48-34-9.8-2.7c-5.6-1.4-8.9-7.3-7.5-12.9h0c1.5-5.6,7.3-9,13-7.5l26.6,7.2,36.1-25.6-10.5-2.7c-5.5-1.5-9-7.3-7.5-12.9h0c1.5-5.7,7.3-9,13-7.5l27.3,7.3,42.3-30.1s8.8-9.2,38.2,5.1l-104.6,123.1,109.7,58.6,67.2-47.8s4.3-4.6,16.2-1.1l-47,79.1,4.7-7.9c33,8.1,69.9,19,108.9,33.9,69.6,26.6,145.9,65.7,218,123.2,105.7,84.3,202.6,208.1,257,390,17.2,57.7,30.2,121.2,37.8,191.2-41.5,8.5-86.6,13.6-135.1,15.6-14,.6-28.3.8-42.8.8h-334.9v-631.3c87.3,53.8,161.2,124.7,218,214.7v223.8h137.7c-20.8-89.3-60.9-197.7-137.7-298.6-53.2-69.8-123.9-135.9-218-189.7-34.6-19.7-72.3-37.8-113.4-53.7l1,79.9c-12-2.8-13.5-9-13.5-9l-34.3-75-124.2-4,28.9,158.8c-32.5-2.5-35.5-14.6-35.5-14.6l-21.6-47.3-27.4-7.3c-5.6-1.5-9-7.3-7.5-13h0c1.5-5.6,7.3-8.9,12.9-7.3l10.5,2.8-18.4-40.1-26.7-7.2c-5.7-1.5-9-7.3-7.5-13h0c1.6-5.6,7.4-8.9,13-7.5l9.8,2.7-24.5-53.3-43.9-13.5c-76-23.4-64.2-67.6,13.3-49.8h0Z"/>
        <path class="cls-5" d="M1060.1,1447.2c18.9,62.6,31.8,128.1,39.5,195.5,79.7-21.9,144.7-57.3,195.1-106.4,90.8-88.5,136.3-208.7,136.3-360.5s-46.6-270.4-139.7-355.7c-93.2-85.2-226.9-127.9-401.1-127.9h-345.2v210.8c54.1,19.9,105.3,43.7,148.1,68.7,24.5,14.4,47.9,29.7,69.9,45.8v-135.3h121.6c110.9,0,193.1,25.9,246.6,77.6,53.6,51.7,80.4,125.5,80.4,221.5s-26.8,169.1-80.4,219.4c-20.4,19.1-44,34.6-71.1,46.5h0Z"/>
      </g>
      <path class="cls-8" d="M1742,1408.7c23.6,95.4,98.3,137.2,218.2,137.2s170.8-43.3,170.8-112.8-50-110.8-227.2-148.6c-281.9-60.7-351.7-154.7-351.7-282.9s135.1-277.9,380.4-277.9,384.7,135.5,399.5,274.5h-225.7c-10.8-58.4-46.1-121.9-179.6-121.9s-145.8,34.4-145.8,101.8,44,92.8,211.4,128.4c301.3,65.1,367.4,167.8,367.4,301.7s-143.1,292.4-417,292.4-401.5-118.7-426.3-291.8h225.7Z"/>
    </g>
  </g>
</svg>